<?xml version="1.0" encoding="UTF-8" standalone="no"?>
<svg
   width="96"
   height="72.472191"
   viewBox="0 0 96 72.472191"
   fill="none"
   version="1.1"
   id="svg14"
   sodipodi:docname="calendar-seasonal-alt.svg"
   inkscape:version="1.4.2 (1:1.4.2+202505120737+ebf0e940d0)"
   xmlns:inkscape="http://www.inkscape.org/namespaces/inkscape"
   xmlns:sodipodi="http://sodipodi.sourceforge.net/DTD/sodipodi-0.dtd"
   xmlns="http://www.w3.org/2000/svg"
   xmlns:svg="http://www.w3.org/2000/svg">
  <defs
     id="defs14" />
  <sodipodi:namedview
     id="namedview14"
     pagecolor="#ffffff"
     bordercolor="#000000"
     borderopacity="0.25"
     inkscape:showpageshadow="2"
     inkscape:pageopacity="0.0"
     inkscape:pagecheckerboard="0"
     inkscape:deskcolor="#d1d1d1"
     inkscape:zoom="4.0716621"
     inkscape:cx="45.80439"
     inkscape:cy="61.768387"
     inkscape:window-width="1870"
     inkscape:window-height="1052"
     inkscape:window-x="0"
     inkscape:window-y="0"
     inkscape:window-maximized="1"
     inkscape:current-layer="svg14" />
  <!-- Calendar Columns (Days) -->
  <g
     id="g16"
     transform="translate(-14.5,-34.923)">
    <path
       id="line16"
       style="stroke:#8a8a8a;stroke-dasharray:2;stroke-dashoffset:0;stroke-opacity:1"
       d="M 82.85714,35.423 82.857,98.759727 M 110,35.423 V 82.881 M 96.428574,35.423 V 82.881 M 69.285713,35.423 V 98.759727 M 55.714,35.423 55.714287,98.759727 M 42.142857,51.142 V 98.759727 M 28.57143,51.142 V 98.759727 M 15,51.142 v 47.617727"
       sodipodi:nodetypes="cccccccccccccccc" />
    <path
       id="path17"
       style="stroke:#8a8a8a;stroke-dasharray:2;stroke-dashoffset:0;stroke-opacity:1"
       d="M 82.857,98.7 H 15 M 110,82.881 15,82.88075 M 110,67.0615 H 15 M 110,35.423 H 55.714 M 110,51.24225 15,51.142"
       sodipodi:nodetypes="cccccccccc" />
  </g>
  <!-- Line Graphs with weekend amplitude adjustment -->
  <!-- Day Initials -->
  <g
     id="g17"
     transform="translate(-7.1247859,-39.617797)">
    <text
       x="10.918502"
       y="112"
       font-size="9px"
       font-family="sans-serif"
       fill="#333333"
       id="text8">M</text>
    <text
       x="26.073936"
       y="112"
       font-size="9px"
       font-family="sans-serif"
       fill="#333333"
       id="text9">T</text>
    <text
       x="37.962353"
       y="112"
       font-size="9px"
       font-family="sans-serif"
       fill="#333333"
       id="text10">W</text>
    <text
       x="53.216793"
       y="112"
       font-size="9px"
       font-family="sans-serif"
       fill="#333333"
       id="text11">T</text>
    <text
       x="66.617218"
       y="112"
       font-size="9px"
       font-family="sans-serif"
       fill="#333333"
       id="text12">F</text>
    <text
       x="80.368645"
       y="112"
       font-size="9px"
       font-family="sans-serif"
       fill="#333333"
       id="text13">S</text>
    <text
       x="93.940079"
       y="112"
       font-size="9px"
       font-family="sans-serif"
       fill="#333333"
       id="text14">S</text>
  </g>
  <path
     id="path24"
     style="stroke:#333333;stroke-width:2;stroke-linecap:round;stroke-dasharray:none"
     d="m 1.5,29.875138 c 0,0 2.9506007,-6.363608 5.815981,-6.666155 2.86538,-0.302547 4.132365,4.773095 6.755448,5.0614 2.623083,0.288305 4.224262,-3.107712 6.737312,-3.041622 2.51305,0.06609 4.168254,3.760467 6.834116,3.528884 2.665862,-0.231583 3.828829,-5.046669 6.658644,-5.061476 2.829815,-0.01481 4.221634,4.974374 6.912785,5.141412 2.691151,0.167038 4.0052,-3.684447 6.579974,-3.728331 2.574774,-0.04388 4.442689,3.675228 6.991454,3.652521 2.548765,-0.02271 3.8428,-3.679301 6.501306,-3.545309 2.658506,0.133992 4.58902,4.364663 7.070123,4.836538 2.481103,0.471875 4.111395,-1.426138 6.422637,-1.46374 2.311242,-0.0376 4.815748,1.575763 7.148791,1.386281 2.333043,-0.189482 4.099148,-2.372208 6.343969,-2.341778 C 90.517361,27.664193 94.5,30.12635 94.5,30.12635 m -93,30.178669 c 0,0 2.9014437,-5.873491 5.815981,-5.952464 2.914537,-0.07897 3.917573,5.936993 6.755448,6.203304 2.837875,0.266311 4.087377,-4.163212 6.737312,-4.183524 2.649935,-0.02031 4.193485,4.130097 6.834116,4.099833 2.640631,-0.03026 3.965066,-4.233204 6.658644,-4.205043 2.693578,0.02816 3.517257,5.323012 6.912785,4.570455 3.395528,-0.752557 2.360883,-10.657836 6.579974,-10.722504 4.219091,-0.06467 3.6809,9.904417 6.991454,10.646694 3.310554,0.742277 3.969806,-4.093537 6.501306,-3.973523 2.5315,0.120014 6.06998,4.551063 6.06998,4.551063 M 42.214,12.83758 c 0,0 3.197342,-3.3188432 5.58026,-3.442854 2.382918,-0.1240108 4.442689,3.473709 6.991454,3.367044 2.548765,-0.106665 3.855206,-3.8639502 6.501306,-3.830786 2.6461,0.033164 4.608408,4.020606 7.070123,4.408324 2.461715,0.387718 4.071519,-1.675735 6.422637,-1.606479 2.351118,0.06926 4.821974,2.131595 7.148791,2.242711 2.326817,0.111116 4.196077,-1.371403 6.343969,-1.34261 2.147892,0.02879 6.22746,1.493419 6.22746,1.493419 M 1.5,45.87514 c 0,0 3.265089,-4.495473 5.815981,-4.667819 2.550892,-0.172346 4.015918,4.237099 6.755448,4.062232 2.73953,-0.174867 4.036617,-5.065052 6.737312,-5.325434 2.700695,-0.260382 4.075371,3.892032 6.834116,3.528884 2.758745,-0.363148 3.469905,-6.192582 6.658644,-6.060644 3.188739,0.131938 3.722207,7.314958 6.912785,7.425224 3.190578,0.110266 3.534699,-6.099567 6.579974,-6.154881 3.045275,-0.05531 3.895802,6.208642 6.991454,6.079071 3.095652,-0.129571 3.25773,-6.684726 6.501306,-6.685551 3.243576,-8.25e-4 4.383736,6.499671 7.070123,7.263089 2.686387,0.763418 4.071519,-1.675735 6.422637,-1.606479 2.351118,0.06926 4.821974,2.131595 7.148791,2.242711 2.326817,0.111116 4.196077,-1.371403 6.343969,-1.34261 2.147892,0.02879 6.22746,1.493419 6.22746,1.493419"
     sodipodi:nodetypes="czzzzzzzzzzzzzcczzzzzzzzzcczzzzzzzcczzzzzzzzzzzzzc" />
</svg>
