<?xml version="1.0" encoding="UTF-8" standalone="no"?>
<svg
   width="68.417007"
   height="48.185196"
   viewBox="0 0 68.417007 48.185196"
   fill="none"
   version="1.1"
   id="svg14"
   sodipodi:docname="calendar-seasonal-alt.svg"
   inkscape:version="1.4.2 (1:1.4.2+202505120737+ebf0e940d0)"
   xmlns:inkscape="http://www.inkscape.org/namespaces/inkscape"
   xmlns:sodipodi="http://sodipodi.sourceforge.net/DTD/sodipodi-0.dtd"
   xmlns="http://www.w3.org/2000/svg"
   xmlns:svg="http://www.w3.org/2000/svg">
  <defs
     id="defs14" />
  <sodipodi:namedview
     id="namedview14"
     pagecolor="#ffffff"
     bordercolor="#000000"
     borderopacity="0.25"
     inkscape:showpageshadow="2"
     inkscape:pageopacity="0.0"
     inkscape:pagecheckerboard="0"
     inkscape:deskcolor="#d1d1d1"
     inkscape:zoom="7.6662993"
     inkscape:cx="43.762967"
     inkscape:cy="44.023849"
     inkscape:window-width="1920"
     inkscape:window-height="1052"
     inkscape:window-x="0"
     inkscape:window-y="0"
     inkscape:window-maximized="1"
     inkscape:current-layer="svg14" />
  <!-- Calendar Columns (Days) -->
  <rect
     style="fill:#ffffff;stroke-width:1.47186;stroke-linejoin:round"
     id="rect1"
     width="68.417007"
     height="48.185196"
     x="0"
     y="0" />
  <!-- Line Graphs with weekend amplitude adjustment -->
  <!-- Day Initials -->
  <g
     id="g1"
     transform="matrix(1.0995103,0,0,1.042901,-6.7790259,-75.891222)">
    <g
       id="g16"
       transform="matrix(0.62944179,0,0,0.62944179,-2.0621258,51.080357)">
      <path
         id="line16"
         style="stroke:#8a8a8a;stroke-dasharray:2;stroke-dashoffset:0;stroke-opacity:1"
         d="M 82.85714,35.423 82.857,98.759727 M 110,35.423 V 82.881 M 96.428574,35.423 V 82.881 M 69.285713,35.423 V 98.759727 M 55.714,35.423 55.714287,98.759727 M 42.142857,51.142 V 98.759727 M 28.57143,51.142 V 98.759727 M 15,51.142 v 47.617727"
         sodipodi:nodetypes="cccccccccccccccc" />
      <path
         id="path17"
         style="stroke:#8a8a8a;stroke-dasharray:2;stroke-dashoffset:0;stroke-opacity:1"
         d="M 82.857,98.7 H 15 M 110,82.881 15,82.88075 M 110,67.0615 H 15 M 110,35.423 H 55.714 M 110,51.24225 15,51.142"
         sodipodi:nodetypes="cccccccccc" />
    </g>
    <g
       id="g17"
       transform="matrix(0.62944179,0,0,0.62944179,2.5801421,48.125255)">
      <text
         x="10.918502"
         y="112"
         font-size="9px"
         font-family="sans-serif"
         fill="#333333"
         id="text8">M</text>
      <text
         x="26.073936"
         y="112"
         font-size="9px"
         font-family="sans-serif"
         fill="#333333"
         id="text9">T</text>
      <text
         x="37.962353"
         y="112"
         font-size="9px"
         font-family="sans-serif"
         fill="#333333"
         id="text10">W</text>
      <text
         x="53.216793"
         y="112"
         font-size="9px"
         font-family="sans-serif"
         fill="#333333"
         id="text11">T</text>
      <text
         x="66.617218"
         y="112"
         font-size="9px"
         font-family="sans-serif"
         fill="#333333"
         id="text12">F</text>
      <text
         x="80.368645"
         y="112"
         font-size="9px"
         font-family="sans-serif"
         fill="#333333"
         id="text13">S</text>
      <text
         x="93.940079"
         y="112"
         font-size="9px"
         font-family="sans-serif"
         fill="#333333"
         id="text14">S</text>
    </g>
    <path
       id="path24"
       style="stroke:#333333;stroke-width:1.25888;stroke-linecap:round;stroke-dasharray:none"
       d="m 8.0089423,91.867013 c 0,0 1.857233,-4.005521 3.6608227,-4.195957 1.80359,-0.190435 2.601083,3.004386 4.252161,3.185857 1.651078,0.181472 2.658927,-1.956123 4.240745,-1.914524 1.581819,0.0416 2.623674,2.366996 4.301678,2.221227 1.678005,-0.145767 2.410025,-3.176584 4.19123,-3.185904 1.781203,-0.0093 2.657272,3.131079 4.351195,3.236219 1.693923,0.105141 2.52104,-2.319145 4.141711,-2.346767 1.62067,-0.02762 2.796414,2.313343 4.400713,2.29905 1.604299,-0.0143 2.418819,-2.315906 4.092194,-2.231566 1.673375,0.08434 2.888521,2.747301 4.45023,3.044319 1.56171,0.297018 2.587885,-0.897671 4.042677,-0.921339 1.454792,-0.02367 3.031233,0.991851 4.499747,0.872583 1.468516,-0.119268 2.580175,-1.493167 3.993159,-1.474013 1.412985,0.01915 3.919825,1.568939 3.919825,1.568939 M 8.0089423,111.02085 c 0,0 1.826291,-3.69702 3.6608227,-3.74673 1.834531,-0.0497 2.465884,3.73699 4.252161,3.90462 1.786277,0.16763 2.572765,-2.6205 4.240745,-2.63328 1.66798,-0.0128 2.639555,2.59965 4.301678,2.5806 1.662124,-0.019 2.495779,-2.66455 4.19123,-2.64683 1.695449,0.0177 2.213908,3.35053 4.351195,2.87684 2.137287,-0.47369 1.486038,-6.70849 4.141711,-6.74919 2.655672,-0.0407 2.316912,6.23425 4.400713,6.70147 2.083801,0.46722 2.498762,-2.57664 4.092194,-2.5011 1.593431,0.0755 3.820699,2.86463 3.820699,2.86463 M 33.636036,81.142862 c 0,0 2.012541,-2.089018 3.512449,-2.167076 1.499908,-0.07806 2.796414,2.186497 4.400713,2.119359 1.604299,-0.06714 2.426627,-2.432132 4.092194,-2.411257 1.665566,0.02088 2.900724,2.530737 4.45023,2.774783 1.549507,0.244046 2.562785,-1.054778 4.042677,-1.011185 1.479892,0.04359 3.035152,1.341715 4.499747,1.411656 1.464596,0.06994 2.641187,-0.863219 3.993159,-0.845095 1.351974,0.01812 3.919825,0.940021 3.919825,0.940021 M 8.0089423,101.93808 c 0,0 2.0551837,-2.829631 3.6608227,-2.938121 1.605637,-0.10848 2.527786,2.667011 4.252161,2.556941 1.724375,-0.11007 2.540815,-3.188151 4.240745,-3.352051 1.699931,-0.16389 2.565209,2.449811 4.301678,2.221231 1.73647,-0.22858 2.184103,-3.897871 4.19123,-3.814821 2.007125,0.083 2.342912,4.604341 4.351195,4.673741 2.008283,0.0694 2.224888,-3.839321 4.141711,-3.874141 1.916823,-0.0348 2.45218,3.907981 4.400713,3.826421 1.948533,-0.0816 2.050551,-4.207641 4.092194,-4.208161 2.041642,-5.2e-4 2.759307,4.091161 4.45023,4.571691 1.690925,0.48053 2.562785,-1.05478 4.042677,-1.01118 1.479892,0.0436 3.035152,1.34171 4.499747,1.41165 1.464596,0.0699 2.641187,-0.86322 3.993159,-0.84509 1.351974,0.0181 3.919825,0.94002 3.919825,0.94002"
       sodipodi:nodetypes="czzzzzzzzzzzzzcczzzzzzzzzcczzzzzzzcczzzzzzzzzzzzzc" />
  </g>
</svg>
