<?xml version="1.0" encoding="UTF-8" standalone="no"?>
<svg
   width="95.764908"
   height="48.507069"
   viewBox="0 0 95.764908 48.507069"
   fill="none"
   version="1.1"
   id="svg14"
   sodipodi:docname="coord-cartesian.svg"
   inkscape:version="1.4.2 (1:1.4.2+202505120737+ebf0e940d0)"
   xmlns:inkscape="http://www.inkscape.org/namespaces/inkscape"
   xmlns:sodipodi="http://sodipodi.sourceforge.net/DTD/sodipodi-0.dtd"
   xmlns="http://www.w3.org/2000/svg"
   xmlns:svg="http://www.w3.org/2000/svg">
  <defs
     id="defs14" />
  <sodipodi:namedview
     id="namedview14"
     pagecolor="#ffffff"
     bordercolor="#000000"
     borderopacity="0.25"
     inkscape:showpageshadow="2"
     inkscape:pageopacity="0.0"
     inkscape:pagecheckerboard="0"
     inkscape:deskcolor="#d1d1d1"
     inkscape:zoom="3.4034157"
     inkscape:cx="8.6677627"
     inkscape:cy="55.679357"
     inkscape:window-width="1920"
     inkscape:window-height="1052"
     inkscape:window-x="0"
     inkscape:window-y="0"
     inkscape:window-maximized="1"
     inkscape:current-layer="svg14" />
  <!-- Cartesian Columns (Days) -->
  <rect
     style="fill:#ffffff;stroke-width:1.74717;stroke-linejoin:round"
     id="rect1"
     width="95.764999"
     height="48.507"
     x="-4.5776367e-05"
     y="3.4332275e-05" />
  <g
     id="g16"
     transform="translate(-14.5,-34.873931)">
    <path
       id="path17"
       style="stroke:#e0e0e0;stroke-dasharray:2;stroke-dashoffset:0"
       d="M 110,82.881 15,82.88075 M 110,35.473125 15,35.372875"
       sodipodi:nodetypes="cccc" />
    <path
       id="path1"
       style="stroke:#e0e0e0;stroke-dasharray:2;stroke-dashoffset:0"
       d="M 78.176607,35.423 V 82.881 M 109.76491,35.423 V 82.881 M 93.970758,35.423 V 82.881 M 62.382455,35.423 V 82.881 M 46.588303,35.423 V 82.881 M 30.794152,35.423 V 82.881 M 101.86783,35.423 V 82.881 M 86.073683,35.423 V 82.881 M 70.279531,35.423 V 82.881 M 54.485379,35.423 V 82.881 M 38.691227,35.423 V 82.881 M 22.897076,35.423 V 82.881 M 15,35.423 v 47.458"
       sodipodi:nodetypes="cccccccccccccccccccccccccc" />
  </g>
  <!-- Line Graphs with weekend amplitude adjustment -->
  <!-- Day Initials -->
  <path
     id="path21"
     style="stroke:#333333;stroke-width:2.67353;stroke-linecap:round;stroke-linejoin:round;stroke-dasharray:none"
     d="m 2.1586906,41.015264 3.2377236,-14.98329 3.7607195,13.039407 3.7506233,-17.094177 3.804514,11.32741 3.706829,-19.454137 3.848308,23.83432 3.663034,-19.756633 3.892103,19.513288 3.61924,-21.460032 3.935898,23.313878 3.575445,-5.156656 3.979691,7.198907 3.531652,-4.309663 3.466791,4.793745 3.318467,-0.407982 3.237722,-19.106891 3.760721,19.912065 3.750622,-13.428747 3.804516,13.160107 3.706827,-13.49782 3.848312,14.670759 3.663031,-34.4182996 3.892101,34.1749586 3.619243,-12.754663 3.379123,14.608515"
     sodipodi:nodetypes="cccccccccccccccccccccccccc" />
</svg>
