<?xml version="1.0" encoding="UTF-8" standalone="no"?>
<svg
   width="18.103926mm"
   height="12.749034mm"
   viewBox="0 0 18.103926 12.749034"
   version="1.1"
   id="svg7"
   sodipodi:docname="facet-grid.svg"
   inkscape:version="1.4.2 (1:1.4.2+202505120737+ebf0e940d0)"
   xmlns:inkscape="http://www.inkscape.org/namespaces/inkscape"
   xmlns:sodipodi="http://sodipodi.sourceforge.net/DTD/sodipodi-0.dtd"
   xmlns="http://www.w3.org/2000/svg"
   xmlns:svg="http://www.w3.org/2000/svg">
  <defs
     id="defs7" />
  <sodipodi:namedview
     id="namedview7"
     pagecolor="#ffffff"
     bordercolor="#000000"
     borderopacity="0.25"
     inkscape:showpageshadow="2"
     inkscape:pageopacity="0.0"
     inkscape:pagecheckerboard="0"
     inkscape:deskcolor="#d1d1d1"
     inkscape:document-units="mm"
     inkscape:zoom="8.4611701"
     inkscape:cx="28.955806"
     inkscape:cy="28.187591"
     inkscape:window-width="1920"
     inkscape:window-height="1052"
     inkscape:window-x="0"
     inkscape:window-y="0"
     inkscape:window-maximized="1"
     inkscape:current-layer="svg7" />
  <!-- Coordinate grid -->
  <!-- Top time series (primary) -->
  <!-- Middle time series (primary) -->
  <!-- Bottom time series (secondary) -->
  <path
     id="path10"
     style="fill:#ffffff;fill-opacity:1;stroke:#8a8a8a;stroke-width:0.15;stroke-dasharray:0.300001;stroke-dashoffset:0;stroke-opacity:1"
     d="M 18.086218,12.674034 2.7368907e-7,12.673968 0.07500027,12.673859 0.03750027,0.0750005 18.086218,0.075 l -0.05735,1e-6 5.9e-5,12.599 z"
     sodipodi:nodetypes="cccccccc" />
  <g
     id="g7"
     transform="translate(0,-0.1250812)">
    <g
       id="g4">
      <path
         id="rect1"
         style="fill:none;fill-opacity:1;stroke:#8a8a8a;stroke-width:0.2;stroke-linejoin:round;stroke-dasharray:none;stroke-opacity:1"
         d="m 1.8789328,1.0287602 h 3.6818548 c 0.1108,0 0.2,0.0892 0.2,0.2 v 4.5778714 c 0,0.1108 -0.0892,0.2 -0.2,0.2 H 1.8789328 c -0.1108,0 -0.2000001,-0.0892 -0.2000001,-0.2 V 1.2287602 c 0,-0.1108 0.0892,-0.2 0.2000001,-0.2 z" />
      <path
         id="path1"
         style="fill:#8a8a8a;fill-opacity:1;stroke:#8a8a8a;stroke-width:0.2;stroke-linejoin:round;stroke-dasharray:none;stroke-opacity:1"
         d="m 1.8789328,1.0287602 h 3.6818548 c 0.1108,0 0.2,0.0892 0.2,0.2 v 0.6179659 c 0,0.1108 -0.0892,0.2 -0.2,0.2 H 1.8789328 c -0.1108,0 -0.2000001,-0.0892 -0.2000001,-0.2 V 1.2287602 c 0,-0.1108 0.0892,-0.2 0.2000001,-0.2 z"
         sodipodi:nodetypes="sssssssss" />
    </g>
    <g
       id="svg7-3"
       transform="translate(11.817105,0.72546127)">
      <text
         xml:space="preserve"
         style="font-size:2.97981px;line-height:1.1;font-family:'Ubuntu Sans';-inkscape-font-specification:'Ubuntu Sans';text-align:start;writing-mode:lr-tb;direction:ltr;text-anchor:start;fill:none;stroke:#8a8a8a;stroke-width:0.191971;stroke-linejoin:round;stroke-opacity:1"
         x="-9.6154566"
         y="4.3511496"
         id="text2"><tspan
           sodipodi:role="line"
           id="tspan2"
           style="fill:#000000;fill-opacity:1;stroke:none;stroke-width:0.191971"
           x="-9.6154566"
           y="4.3511496">A1</tspan></text>
    </g>
  </g>
  <g
     id="g10"
     transform="translate(5.2916663,-0.1250812)">
    <g
       id="g8">
      <path
         id="path7"
         style="fill:none;fill-opacity:1;stroke:#8a8a8a;stroke-width:0.2;stroke-linejoin:round;stroke-dasharray:none;stroke-opacity:1"
         d="m 1.8789328,1.0287602 h 3.6818548 c 0.1108,0 0.2,0.0892 0.2,0.2 v 4.5778714 c 0,0.1108 -0.0892,0.2 -0.2,0.2 H 1.8789328 c -0.1108,0 -0.2000001,-0.0892 -0.2000001,-0.2 V 1.2287602 c 0,-0.1108 0.0892,-0.2 0.2000001,-0.2 z" />
      <path
         id="path8"
         style="fill:#8a8a8a;fill-opacity:1;stroke:#8a8a8a;stroke-width:0.2;stroke-linejoin:round;stroke-dasharray:none;stroke-opacity:1"
         d="m 1.8789328,1.0287602 h 3.6818548 c 0.1108,0 0.2,0.0892 0.2,0.2 v 0.6179659 c 0,0.1108 -0.0892,0.2 -0.2,0.2 H 1.8789328 c -0.1108,0 -0.2000001,-0.0892 -0.2000001,-0.2 V 1.2287602 c 0,-0.1108 0.0892,-0.2 0.2000001,-0.2 z"
         sodipodi:nodetypes="sssssssss" />
    </g>
    <g
       id="g9"
       transform="translate(11.721749,0.72546127)">
      <text
         xml:space="preserve"
         style="font-size:2.97981px;line-height:1.1;font-family:'Ubuntu Sans';-inkscape-font-specification:'Ubuntu Sans';text-align:start;writing-mode:lr-tb;direction:ltr;text-anchor:start;fill:none;stroke:#8a8a8a;stroke-width:0.191971;stroke-linejoin:round;stroke-opacity:1"
         x="-9.6154566"
         y="4.3511496"
         id="text8"><tspan
           sodipodi:role="line"
           id="tspan8"
           style="fill:#000000;fill-opacity:1;stroke:none;stroke-width:0.191971"
           x="-9.6154566"
           y="4.3511496">B1</tspan></text>
    </g>
  </g>
  <g
     id="g14"
     transform="translate(10.583333,-0.1250812)">
    <g
       id="g12">
      <path
         id="path11"
         style="fill:none;fill-opacity:1;stroke:#8a8a8a;stroke-width:0.2;stroke-linejoin:round;stroke-dasharray:none;stroke-opacity:1"
         d="m 1.8789328,1.0287602 h 3.6818548 c 0.1108,0 0.2,0.0892 0.2,0.2 v 4.5778714 c 0,0.1108 -0.0892,0.2 -0.2,0.2 H 1.8789328 c -0.1108,0 -0.2000001,-0.0892 -0.2000001,-0.2 V 1.2287602 c 0,-0.1108 0.0892,-0.2 0.2000001,-0.2 z" />
      <path
         id="path12"
         style="fill:#8a8a8a;fill-opacity:1;stroke:#8a8a8a;stroke-width:0.2;stroke-linejoin:round;stroke-dasharray:none;stroke-opacity:1"
         d="m 1.8789328,1.0287602 h 3.6818548 c 0.1108,0 0.2,0.0892 0.2,0.2 v 0.6179659 c 0,0.1108 -0.0892,0.2 -0.2,0.2 H 1.8789328 c -0.1108,0 -0.2000001,-0.0892 -0.2000001,-0.2 V 1.2287602 c 0,-0.1108 0.0892,-0.2 0.2000001,-0.2 z"
         sodipodi:nodetypes="sssssssss" />
    </g>
    <g
       id="g13"
       transform="translate(12.366879,0.72546127)">
      <text
         xml:space="preserve"
         style="font-size:2.97981px;line-height:1.1;font-family:'Ubuntu Sans';-inkscape-font-specification:'Ubuntu Sans';text-align:start;writing-mode:lr-tb;direction:ltr;text-anchor:start;fill:none;stroke:#8a8a8a;stroke-width:0.191971;stroke-linejoin:round;stroke-opacity:1"
         x="-10.186092"
         y="4.3511496"
         id="text12"><tspan
           sodipodi:role="line"
           id="tspan12"
           style="fill:#000000;fill-opacity:1;stroke:none;stroke-width:0.191971"
           x="-10.186092"
           y="4.3511496">C1</tspan></text>
    </g>
  </g>
  <g
     id="g17"
     transform="translate(10.583333,5.7607212)">
    <g
       id="g15">
      <path
         id="path14"
         style="fill:none;fill-opacity:1;stroke:#8a8a8a;stroke-width:0.2;stroke-linejoin:round;stroke-dasharray:none;stroke-opacity:1"
         d="m 1.8789328,1.0287602 h 3.6818548 c 0.1108,0 0.2,0.0892 0.2,0.2 v 4.5778714 c 0,0.1108 -0.0892,0.2 -0.2,0.2 H 1.8789328 c -0.1108,0 -0.2000001,-0.0892 -0.2000001,-0.2 V 1.2287602 c 0,-0.1108 0.0892,-0.2 0.2000001,-0.2 z" />
      <path
         id="path15"
         style="fill:#8a8a8a;fill-opacity:1;stroke:#8a8a8a;stroke-width:0.2;stroke-linejoin:round;stroke-dasharray:none;stroke-opacity:1"
         d="m 1.8789328,1.0287602 h 3.6818548 c 0.1108,0 0.2,0.0892 0.2,0.2 v 0.6179659 c 0,0.1108 -0.0892,0.2 -0.2,0.2 H 1.8789328 c -0.1108,0 -0.2000001,-0.0892 -0.2000001,-0.2 V 1.2287602 c 0,-0.1108 0.0892,-0.2 0.2000001,-0.2 z"
         sodipodi:nodetypes="sssssssss" />
    </g>
    <g
       id="g16"
       transform="translate(12.366879,0.72546127)">
      <text
         xml:space="preserve"
         style="font-size:2.97981px;line-height:1.1;font-family:'Ubuntu Sans';-inkscape-font-specification:'Ubuntu Sans';text-align:start;writing-mode:lr-tb;direction:ltr;text-anchor:start;fill:none;stroke:#8a8a8a;stroke-width:0.191971;stroke-linejoin:round;stroke-opacity:1"
         x="-10.373819"
         y="4.3511496"
         id="text15"><tspan
           sodipodi:role="line"
           id="tspan15"
           style="fill:#000000;fill-opacity:1;stroke:none;stroke-width:0.191971"
           x="-10.373819"
           y="4.3511496">C3</tspan></text>
    </g>
  </g>
  <g
     id="g20"
     transform="translate(5.2916663,5.7607212)">
    <g
       id="g18">
      <path
         id="path17"
         style="fill:none;fill-opacity:1;stroke:#8a8a8a;stroke-width:0.2;stroke-linejoin:round;stroke-dasharray:none;stroke-opacity:1"
         d="m 1.8789328,1.0287602 h 3.6818548 c 0.1108,0 0.2,0.0892 0.2,0.2 v 4.5778714 c 0,0.1108 -0.0892,0.2 -0.2,0.2 H 1.8789328 c -0.1108,0 -0.2000001,-0.0892 -0.2000001,-0.2 V 1.2287602 c 0,-0.1108 0.0892,-0.2 0.2000001,-0.2 z" />
      <path
         id="path18"
         style="fill:#8a8a8a;fill-opacity:1;stroke:#8a8a8a;stroke-width:0.2;stroke-linejoin:round;stroke-dasharray:none;stroke-opacity:1"
         d="m 1.8789328,1.0287602 h 3.6818548 c 0.1108,0 0.2,0.0892 0.2,0.2 v 0.6179659 c 0,0.1108 -0.0892,0.2 -0.2,0.2 H 1.8789328 c -0.1108,0 -0.2000001,-0.0892 -0.2000001,-0.2 V 1.2287602 c 0,-0.1108 0.0892,-0.2 0.2000001,-0.2 z"
         sodipodi:nodetypes="sssssssss" />
    </g>
    <g
       id="g19"
       transform="translate(12.366879,0.72546127)">
      <text
         xml:space="preserve"
         style="font-size:2.97981px;line-height:1.1;font-family:'Ubuntu Sans';-inkscape-font-specification:'Ubuntu Sans';text-align:start;writing-mode:lr-tb;direction:ltr;text-anchor:start;fill:none;stroke:#8a8a8a;stroke-width:0.191971;stroke-linejoin:round;stroke-opacity:1"
         x="-10.446824"
         y="4.3511496"
         id="text18"><tspan
           sodipodi:role="line"
           id="tspan18"
           style="fill:#000000;fill-opacity:1;stroke:none;stroke-width:0.191971"
           x="-10.446824"
           y="4.3511496">B2</tspan></text>
    </g>
  </g>
  <g
     id="g23"
     transform="translate(-3.6666667e-7,5.7607212)">
    <g
       id="g21">
      <path
         id="path20"
         style="fill:none;fill-opacity:1;stroke:#8a8a8a;stroke-width:0.2;stroke-linejoin:round;stroke-dasharray:none;stroke-opacity:1"
         d="m 1.8789328,1.0287602 h 3.6818548 c 0.1108,0 0.2,0.0892 0.2,0.2 v 4.5778714 c 0,0.1108 -0.0892,0.2 -0.2,0.2 H 1.8789328 c -0.1108,0 -0.2000001,-0.0892 -0.2000001,-0.2 V 1.2287602 c 0,-0.1108 0.0892,-0.2 0.2000001,-0.2 z" />
      <path
         id="path21"
         style="fill:#8a8a8a;fill-opacity:1;stroke:#8a8a8a;stroke-width:0.2;stroke-linejoin:round;stroke-dasharray:none;stroke-opacity:1"
         d="m 1.8789328,1.0287602 h 3.6818548 c 0.1108,0 0.2,0.0892 0.2,0.2 v 0.6179659 c 0,0.1108 -0.0892,0.2 -0.2,0.2 H 1.8789328 c -0.1108,0 -0.2000001,-0.0892 -0.2000001,-0.2 V 1.2287602 c 0,-0.1108 0.0892,-0.2 0.2000001,-0.2 z"
         sodipodi:nodetypes="sssssssss" />
    </g>
    <g
       id="g22"
       transform="translate(12.366879,0.72546127)">
      <text
         xml:space="preserve"
         style="font-size:2.97981px;line-height:1.1;font-family:'Ubuntu Sans';-inkscape-font-specification:'Ubuntu Sans';text-align:start;writing-mode:lr-tb;direction:ltr;text-anchor:start;fill:none;stroke:#8a8a8a;stroke-width:0.191971;stroke-linejoin:round;stroke-opacity:1"
         x="-10.351469"
         y="4.3511496"
         id="text21"><tspan
           sodipodi:role="line"
           id="tspan21"
           style="fill:#000000;fill-opacity:1;stroke:none;stroke-width:0.191971"
           x="-10.351469"
           y="4.3511496">A2</tspan></text>
    </g>
  </g>
</svg>
