<?xml version="1.0" encoding="UTF-8" standalone="no"?>
<svg
   width="18.103926mm"
   height="12.749034mm"
   viewBox="0 0 18.103926 12.749034"
   version="1.1"
   id="svg7"
   sodipodi:docname="facet-cycle.svg"
   inkscape:version="1.4.2 (1:1.4.2+202505120737+ebf0e940d0)"
   xmlns:inkscape="http://www.inkscape.org/namespaces/inkscape"
   xmlns:sodipodi="http://sodipodi.sourceforge.net/DTD/sodipodi-0.dtd"
   xmlns="http://www.w3.org/2000/svg"
   xmlns:svg="http://www.w3.org/2000/svg">
  <defs
     id="defs7" />
  <sodipodi:namedview
     id="namedview7"
     pagecolor="#ffffff"
     bordercolor="#000000"
     borderopacity="0.25"
     inkscape:showpageshadow="2"
     inkscape:pageopacity="0.0"
     inkscape:pagecheckerboard="0"
     inkscape:deskcolor="#d1d1d1"
     inkscape:document-units="mm"
     inkscape:zoom="3.5853644"
     inkscape:cx="0"
     inkscape:cy="1.8129259"
     inkscape:window-width="1920"
     inkscape:window-height="1052"
     inkscape:window-x="0"
     inkscape:window-y="0"
     inkscape:window-maximized="1"
     inkscape:current-layer="svg7" />
  <!-- Coordinate grid -->
  <!-- Top time series (primary) -->
  <!-- Middle time series (primary) -->
  <!-- Bottom time series (secondary) -->
  <path
     id="path10"
     style="fill:#ffffff;fill-opacity:1;stroke:#8a8a8a;stroke-width:0.15;stroke-dasharray:0.300001;stroke-dashoffset:0;stroke-opacity:1"
     d="M 18.086218,12.674034 2.7368907e-7,12.673968 0.07500027,12.673859 0.03750027,0.0750005 18.086218,0.075 l -0.05735,1e-6 5.9e-5,12.599 z"
     sodipodi:nodetypes="cccccccc" />
  <g
     id="g7"
     transform="translate(-1.0583334,2.8568211)">
    <g
       id="g4">
      <path
         id="rect1"
         style="fill:none;fill-opacity:1;stroke:#8a8a8a;stroke-width:0.2;stroke-linejoin:round;stroke-dasharray:none;stroke-opacity:1"
         d="m 1.8789328,1.0287602 h 3.2753409 c 0.1108,0 0.2,0.0892 0.2,0.2 v 4.5778714 c 0,0.1108 -0.0892,0.2 -0.2,0.2 H 1.8789328 c -0.1108,0 -0.2000001,-0.0892 -0.2000001,-0.2 V 1.2287602 c 0,-0.1108 0.0892,-0.2 0.2000001,-0.2 z"
         sodipodi:nodetypes="sssssssss" />
      <path
         id="path26"
         style="fill:#8a8a8a;fill-opacity:1;stroke:#8a8a8a;stroke-width:0.2;stroke-linejoin:round;stroke-dasharray:none;stroke-opacity:1"
         d="m 1.8789328,1.0287602 h 3.2753409 c 0.1108,0 0.2,0.0892 0.2,0.2 v 0.6163152 c 0,0.1108 -0.0892,0.2 -0.2,0.2 H 1.8789328 c -0.1108,0 -0.2000001,-0.0892 -0.2000001,-0.2 V 1.2287602 c 0,-0.1108 0.0892,-0.2 0.2000001,-0.2 z"
         sodipodi:nodetypes="sssssssss" />
    </g>
    <g
       id="svg7-3"
       transform="translate(11.817105,0.72546127)">
      <text
         xml:space="preserve"
         style="font-size:2.46944px;line-height:1.1;font-family:'Ubuntu Sans';-inkscape-font-specification:'Ubuntu Sans';text-align:start;writing-mode:lr-tb;direction:ltr;text-anchor:start;fill:none;stroke:#8a8a8a;stroke-width:0.191971;stroke-linejoin:round;stroke-opacity:1"
         x="-8.1227036"
         y="4.3511496"
         id="text2"><tspan
           sodipodi:role="line"
           id="tspan2"
           style="font-size:2.46944px;text-align:center;text-anchor:middle;fill:#000000;fill-opacity:1;stroke:none;stroke-width:0.191971"
           x="-8.1227036"
           y="4.3511496">Q1</tspan></text>
    </g>
  </g>
  <g
     id="g30"
     transform="translate(3.3204881,2.8568211)">
    <g
       id="g28">
      <path
         id="path27"
         style="fill:none;fill-opacity:1;stroke:#8a8a8a;stroke-width:0.2;stroke-linejoin:round;stroke-dasharray:none;stroke-opacity:1"
         d="m 1.8789328,1.0287602 h 3.2753409 c 0.1108,0 0.2,0.0892 0.2,0.2 v 4.5778714 c 0,0.1108 -0.0892,0.2 -0.2,0.2 H 1.8789328 c -0.1108,0 -0.2000001,-0.0892 -0.2000001,-0.2 V 1.2287602 c 0,-0.1108 0.0892,-0.2 0.2000001,-0.2 z"
         sodipodi:nodetypes="sssssssss" />
      <path
         id="path28"
         style="fill:#8a8a8a;fill-opacity:1;stroke:#8a8a8a;stroke-width:0.2;stroke-linejoin:round;stroke-dasharray:none;stroke-opacity:1"
         d="m 1.8789328,1.0287602 h 3.2753409 c 0.1108,0 0.2,0.0892 0.2,0.2 v 0.6163152 c 0,0.1108 -0.0892,0.2 -0.2,0.2 H 1.8789328 c -0.1108,0 -0.2000001,-0.0892 -0.2000001,-0.2 V 1.2287602 c 0,-0.1108 0.0892,-0.2 0.2000001,-0.2 z"
         sodipodi:nodetypes="sssssssss" />
    </g>
    <g
       id="g29"
       transform="translate(11.817105,0.72546127)">
      <text
         xml:space="preserve"
         style="font-size:2.46944px;line-height:1.1;font-family:'Ubuntu Sans';-inkscape-font-specification:'Ubuntu Sans';text-align:start;writing-mode:lr-tb;direction:ltr;text-anchor:start;fill:none;stroke:#8a8a8a;stroke-width:0.191971;stroke-linejoin:round;stroke-opacity:1"
         x="-8.2770433"
         y="4.3511496"
         id="text28"><tspan
           sodipodi:role="line"
           id="tspan28"
           style="font-size:2.46944px;text-align:center;text-anchor:middle;fill:#000000;fill-opacity:1;stroke:none;stroke-width:0.191971"
           x="-8.2770433"
           y="4.3511496">Q2</tspan></text>
    </g>
  </g>
  <g
     id="g33"
     transform="translate(7.6993095,2.8568211)">
    <g
       id="g31">
      <path
         id="path30"
         style="fill:none;fill-opacity:1;stroke:#8a8a8a;stroke-width:0.2;stroke-linejoin:round;stroke-dasharray:none;stroke-opacity:1"
         d="m 1.8789328,1.0287602 h 3.2753409 c 0.1108,0 0.2,0.0892 0.2,0.2 v 4.5778714 c 0,0.1108 -0.0892,0.2 -0.2,0.2 H 1.8789328 c -0.1108,0 -0.2000001,-0.0892 -0.2000001,-0.2 V 1.2287602 c 0,-0.1108 0.0892,-0.2 0.2000001,-0.2 z"
         sodipodi:nodetypes="sssssssss" />
      <path
         id="path31"
         style="fill:#8a8a8a;fill-opacity:1;stroke:#8a8a8a;stroke-width:0.2;stroke-linejoin:round;stroke-dasharray:none;stroke-opacity:1"
         d="m 1.8789328,1.0287602 h 3.2753409 c 0.1108,0 0.2,0.0892 0.2,0.2 v 0.6163152 c 0,0.1108 -0.0892,0.2 -0.2,0.2 H 1.8789328 c -0.1108,0 -0.2000001,-0.0892 -0.2000001,-0.2 V 1.2287602 c 0,-0.1108 0.0892,-0.2 0.2000001,-0.2 z"
         sodipodi:nodetypes="sssssssss" />
    </g>
    <g
       id="g32"
       transform="translate(11.817105,0.72546127)">
      <text
         xml:space="preserve"
         style="font-size:2.46944px;line-height:1.1;font-family:'Ubuntu Sans';-inkscape-font-specification:'Ubuntu Sans';text-align:start;writing-mode:lr-tb;direction:ltr;text-anchor:start;fill:none;stroke:#8a8a8a;stroke-width:0.191971;stroke-linejoin:round;stroke-opacity:1"
         x="-8.2782774"
         y="4.3511496"
         id="text31"><tspan
           sodipodi:role="line"
           id="tspan31"
           style="font-size:2.46944px;text-align:center;text-anchor:middle;fill:#000000;fill-opacity:1;stroke:none;stroke-width:0.191971"
           x="-8.2782774"
           y="4.3511496">Q3</tspan></text>
    </g>
  </g>
  <g
     id="g36"
     transform="translate(12.078131,2.8568211)">
    <g
       id="g34">
      <path
         id="path33"
         style="fill:none;fill-opacity:1;stroke:#8a8a8a;stroke-width:0.2;stroke-linejoin:round;stroke-dasharray:none;stroke-opacity:1"
         d="m 1.8789328,1.0287602 h 3.2753409 c 0.1108,0 0.2,0.0892 0.2,0.2 v 4.5778714 c 0,0.1108 -0.0892,0.2 -0.2,0.2 H 1.8789328 c -0.1108,0 -0.2000001,-0.0892 -0.2000001,-0.2 V 1.2287602 c 0,-0.1108 0.0892,-0.2 0.2000001,-0.2 z"
         sodipodi:nodetypes="sssssssss" />
      <path
         id="path34"
         style="fill:#8a8a8a;fill-opacity:1;stroke:#8a8a8a;stroke-width:0.2;stroke-linejoin:round;stroke-dasharray:none;stroke-opacity:1"
         d="m 1.8789328,1.0287602 h 3.2753409 c 0.1108,0 0.2,0.0892 0.2,0.2 v 0.6163152 c 0,0.1108 -0.0892,0.2 -0.2,0.2 H 1.8789328 c -0.1108,0 -0.2000001,-0.0892 -0.2000001,-0.2 V 1.2287602 c 0,-0.1108 0.0892,-0.2 0.2000001,-0.2 z"
         sodipodi:nodetypes="sssssssss" />
    </g>
    <g
       id="g35"
       transform="translate(11.817105,0.72546127)">
      <text
         xml:space="preserve"
         style="font-size:2.46944px;line-height:1.1;font-family:'Ubuntu Sans';-inkscape-font-specification:'Ubuntu Sans';text-align:start;writing-mode:lr-tb;direction:ltr;text-anchor:start;fill:none;stroke:#8a8a8a;stroke-width:0.191971;stroke-linejoin:round;stroke-opacity:1"
         x="-8.3177881"
         y="4.3511496"
         id="text34"><tspan
           sodipodi:role="line"
           id="tspan34"
           style="font-size:2.46944px;text-align:center;text-anchor:middle;fill:#000000;fill-opacity:1;stroke:none;stroke-width:0.191971"
           x="-8.3177881"
           y="4.3511496">Q4</tspan></text>
    </g>
  </g>
</svg>
