<?xml version="1.0" encoding="UTF-8" standalone="no"?>
<svg
   width="18.117392mm"
   height="12.749mm"
   viewBox="0 0 18.117391 12.749"
   version="1.1"
   id="svg7"
   sodipodi:docname="icon-area.svg"
   inkscape:version="1.4.2 (1:1.4.2+202505120737+ebf0e940d0)"
   xmlns:inkscape="http://www.inkscape.org/namespaces/inkscape"
   xmlns:sodipodi="http://sodipodi.sourceforge.net/DTD/sodipodi-0.dtd"
   xmlns="http://www.w3.org/2000/svg"
   xmlns:svg="http://www.w3.org/2000/svg">
  <defs
     id="defs7" />
  <sodipodi:namedview
     id="namedview7"
     pagecolor="#ffffff"
     bordercolor="#000000"
     borderopacity="0.25"
     inkscape:showpageshadow="2"
     inkscape:pageopacity="0.0"
     inkscape:pagecheckerboard="0"
     inkscape:deskcolor="#d1d1d1"
     inkscape:document-units="mm"
     inkscape:zoom="8.2770052"
     inkscape:cx="35.338869"
     inkscape:cy="35.218052"
     inkscape:window-width="1870"
     inkscape:window-height="1052"
     inkscape:window-x="0"
     inkscape:window-y="0"
     inkscape:window-maximized="1"
     inkscape:current-layer="svg7" />
  <!-- Coordinate grid -->
  <!-- Top time series (primary) -->
  <!-- Middle time series (primary) -->
  <!-- Bottom time series (secondary) -->
  <rect
     style="fill:#ffffff;stroke-width:0.38943;stroke-linejoin:round;stroke:none"
     id="rect1"
     width="18.101999"
     height="12.749"
     x="0.0076964055"
     y="0" />
  <path
     style="fill:#cc6a28;fill-opacity:1;stroke:none;stroke-width:0.529167;stroke-linecap:butt;stroke-dasharray:none;stroke-opacity:1"
     d="M 13.565019,9.9700703 V 3.898762 L 11.627159,4.5077204 9.6892993,3.2446299 7.7514394,2.7414946 5.8135796,1.8227705 3.8757197,4.7903298 1.9378599,4.7631269 0,6.1958952 v 3.7741751 z"
     id="path3"
     sodipodi:nodetypes="ccccccccccc"
     transform="matrix(1.3344618,0,0,1.2769231,0,0.01798654)" />
  <path
     style="fill:#cc2828;fill-opacity:1;stroke:none;stroke-width:0.529167;stroke-linecap:butt;stroke-dasharray:none;stroke-opacity:1"
     d="m 13.565019,9.9700703 0,-2.6917629 L 11.627159,6.5604813 9.6892993,5.1722224 7.7514394,3.692774 5.8135796,4.4262721 3.8757197,6.9181917 1.9378599,5.889642 0,8.3487908 v 1.6212795 z"
     id="path1"
     sodipodi:nodetypes="ccccccccccc"
     transform="matrix(1.3344618,0,0,1.2769231,0,0.01798654)" />
  <path
     style="fill:#6b1527;fill-opacity:1;stroke:none;stroke-width:0.690762;stroke-linecap:butt;stroke-dasharray:none;stroke-opacity:1"
     d="M 18.102,12.749 15.516,10.313181 12.93,10.969902 10.344,8.1537445 7.7579999,7.3641974 5.1719999,10.098662 2.586,9.5205028 0,12.749 Z"
     id="path2"
     sodipodi:nodetypes="ccccccccc" />
  <path
     id="path10"
     style="fill:none;fill-opacity:1;stroke:#8a8a8a;stroke-width:0.15;stroke-dasharray:0.300001;stroke-dashoffset:0;stroke-opacity:1"
     d="m 0.01119826,12.67395 18.08621774,6.6e-5 -0.05729,-3.3e-5 0.02862,-12.59899951 H 0.04869826 l 0.0375,12.59885751"
     sodipodi:nodetypes="cccccc" />
</svg>
