<?xml version="1.0" encoding="UTF-8" standalone="no"?>
<svg
   width="18.103926mm"
   height="12.749034mm"
   viewBox="0 0 18.103926 12.749034"
   version="1.1"
   id="svg7"
   sodipodi:docname="interoperability.svg"
   inkscape:version="1.4.2 (1:1.4.2+202505120737+ebf0e940d0)"
   xml:space="preserve"
   xmlns:inkscape="http://www.inkscape.org/namespaces/inkscape"
   xmlns:sodipodi="http://sodipodi.sourceforge.net/DTD/sodipodi-0.dtd"
   xmlns="http://www.w3.org/2000/svg"
   xmlns:svg="http://www.w3.org/2000/svg"><defs
     id="defs7" /><sodipodi:namedview
     id="namedview7"
     pagecolor="#ffffff"
     bordercolor="#000000"
     borderopacity="0.25"
     inkscape:showpageshadow="2"
     inkscape:pageopacity="0.0"
     inkscape:pagecheckerboard="0"
     inkscape:deskcolor="#d1d1d1"
     inkscape:document-units="mm"
     inkscape:zoom="7.9927167"
     inkscape:cx="48.481638"
     inkscape:cy="39.973893"
     inkscape:window-width="1870"
     inkscape:window-height="1052"
     inkscape:window-x="0"
     inkscape:window-y="0"
     inkscape:window-maximized="1"
     inkscape:current-layer="svg7" /><!-- Coordinate grid --><!-- Top time series (primary) --><!-- Middle time series (primary) --><!-- Bottom time series (secondary) --><rect
     style="fill:#ffffff;stroke-width:0.38943;stroke-linejoin:round"
     id="rect1"
     width="18.101999"
     height="12.749"
     x="0.00096321106"
     y="1.7166138e-05" /><path
     id="path10"
     style="stroke:#8a8a8a;stroke-width:0.15;stroke-dasharray:0.300001;stroke-dashoffset:0;stroke-opacity:1"
     d="M 18.086,12.674 2.7368907e-7,12.673968 M 18.086218,0.075 H 2.7368907e-7 M 0.07500027,0.075001 V 12.673859 M 18.027121,0.075 v 12.599"
     sodipodi:nodetypes="cccccccc" /><text
     xml:space="preserve"
     style="font-size:3.10444px;line-height:1.1;font-family:'Ubuntu Sans';-inkscape-font-specification:'Ubuntu Sans';text-align:start;writing-mode:lr-tb;direction:ltr;text-anchor:start;fill:#000000;fill-opacity:1;stroke:none;stroke-width:0.2;stroke-linejoin:round"
     x="0.86853409"
     y="10.992385"
     id="text3"><tspan
       sodipodi:role="line"
       id="tspan3"
       style="stroke-width:0.2" /></text><path
     sodipodi:type="star"
     style="fill:#e6e6e6;stroke:#8a8a8a;stroke-width:0.4;stroke-linejoin:round"
     id="path18"
     inkscape:flatsided="true"
     sodipodi:sides="6"
     sodipodi:cx="331.51273"
     sodipodi:cy="170.28886"
     sodipodi:r1="7.5087514"
     sodipodi:r2="6.5027695"
     sodipodi:arg1="0.52359878"
     sodipodi:arg2="1.0471976"
     inkscape:rounded="0"
     inkscape:randomized="0"
     d="m 338.0155,174.04324 -6.50277,3.75438 -6.50277,-3.75438 0,-7.50875 6.50277,-3.75438 6.50277,3.75438 z"
     transform="matrix(0.42164088,0,0,0.42164088,-127.75379,-67.938428)" /><path
     sodipodi:type="star"
     style="fill:#e6e6e6;stroke:#8a8a8a;stroke-width:0.4;stroke-linejoin:round"
     id="path5"
     inkscape:flatsided="true"
     sodipodi:sides="6"
     sodipodi:cx="331.51273"
     sodipodi:cy="170.28886"
     sodipodi:r1="7.5087514"
     sodipodi:r2="6.5027695"
     sodipodi:arg1="0.52359878"
     sodipodi:arg2="1.0471976"
     inkscape:rounded="0"
     inkscape:randomized="0"
     d="m 338.0155,174.04324 -6.50277,3.75438 -6.50277,-3.75438 0,-7.50875 6.50277,-3.75438 6.50277,3.75438 z"
     transform="matrix(0.42164088,0,0,0.42164088,-133.70092,-67.938428)" /><path
     sodipodi:type="star"
     style="fill:#e6e6e6;stroke:#8a8a8a;stroke-width:0.4;stroke-linejoin:round"
     id="path6"
     inkscape:flatsided="true"
     sodipodi:sides="6"
     sodipodi:cx="331.51273"
     sodipodi:cy="170.28886"
     sodipodi:r1="7.5087514"
     sodipodi:r2="6.5027695"
     sodipodi:arg1="0.52359878"
     sodipodi:arg2="1.0471976"
     inkscape:rounded="0"
     inkscape:randomized="0"
     d="m 338.0155,174.04324 -6.50277,3.75438 -6.50277,-3.75438 0,-7.50875 6.50277,-3.75438 6.50277,3.75438 z"
     transform="matrix(0.42164088,0,0,0.42164088,-130.75192,-62.914032)" /><path
     d="M 10.540175,7.1367148 H 8.8757307 c -0.1302777,0 -0.2372221,0.1069448 -0.2372221,0.2372222 v 0.7350001 h 1.1666665 v 1.1666664 h 0.7349999 c 0.130277,0 0.237222,-0.1069448 0.237222,-0.2372225 V 7.373937 c 0,-0.1302779 -0.106945,-0.2372222 -0.237222,-0.2372222 m -1.427222,0.713611 c -0.1322223,0 -0.2391666,-0.1069449 -0.2391666,-0.2391667 0,-0.1322221 0.1069448,-0.2391666 0.2391666,-0.2391666 a 0.23916662,0.23916662 0 0 1 0.2391665,0.2391666 c 0,0.1322222 -0.1069448,0.2391667 -0.2391665,0.2391667 m 1.19,1.1880552 c -0.132223,0.00192 -0.239167,-0.105 -0.241111,-0.2372224 -0.0019,-0.1322217 0.105,-0.2391663 0.237221,-0.2411108 0.132222,-0.00192 0.239168,0.105 0.241112,0.2411108 -0.0019,0.1302779 -0.106945,0.2352779 -0.237222,0.2372224 m 0,-1.1880552 c -0.132223,0.00195 -0.239167,-0.105 -0.241111,-0.2372222 -0.0019,-0.1322222 0.105,-0.2391666 0.237221,-0.2411111 0.132222,-0.00195 0.239168,0.105 0.241112,0.2391666 0,0.1322222 -0.105,0.2372222 -0.237222,0.2391667 M 7.5146199,8.4978253 H 9.179064 a 0.23722217,0.23722217 0 0 1 0.2372222,0.2372225 v 1.6644442 c 0,0.130278 -0.1069449,0.237222 -0.2372222,0.237222 H 7.5146199 c -0.1302777,0 -0.2372222,-0.106944 -0.2372222,-0.237222 V 8.7350478 c 0,-0.1302779 0.1069448,-0.2372225 0.2372222,-0.2372225 m 0.832222,0.8322223 c -0.1302777,0 -0.2372221,0.1069449 -0.2372221,0.2372224 0,0.1302772 0.1069448,0.2372221 0.2372221,0.2372221 0.1302779,0 0.2372222,-0.1069449 0.2372222,-0.2372221 A 0.23722217,0.23722217 0 0 0 8.3468419,9.3300476 M 7.7518422,8.7350478 c -0.1302779,0 -0.2372223,0.1069448 -0.2372223,0.2372224 a 0.23722217,0.23722217 0 0 0 0.2372223,0.2372217 c 0.1302776,0 0.237222,-0.1069449 0.237222,-0.2372217 v 0 c 0,-0.1302779 -0.1069447,-0.2372224 -0.237222,-0.2372224 m 1.1880552,1.1880555 c -0.1302777,0 -0.2372222,0.1069447 -0.2372222,0.2372227 0,0.130277 0.1069449,0.237222 0.2372222,0.237222 a 0.23722217,0.23722217 0 0 0 0.2372221,-0.237222 v 0 c 0,-0.130278 -0.105,-0.2352781 -0.2352777,-0.2372227 z"
     id="path1"
     style="fill:#333333;fill-opacity:1;stroke-width:0.194443" /><path
     d="m 7.3908973,4.7373146 c -0.02275,0 -0.0455,0 -0.06825,0.007 l -0.28175,-0.568751 c 0.07875,-0.07875 0.13125,-0.189 0.13125,-0.313249 0,-0.2415 -0.1959999,-0.4375 -0.4374999,-0.4375 -0.02275,0 -0.04375,0 -0.06825,0.007 l -0.28525,-0.5687462 c 0.084,-0.07875 0.13475,-0.1889999 0.13475,-0.31325 0,-0.2414999 -0.196,-0.4374999 -0.4375,-0.4374999 -0.2414999,0 -0.4374999,0.196 -0.4374999,0.4374999 0,0.1242501 0.05075,0.2345 0.133,0.31325 l -0.2835,0.5687502 c -0.0245,-0.007 -0.0455,-0.007 -0.06825,-0.007 -0.2415,0 -0.4375,0.196 -0.4375,0.4375 0,0.12425 0.0525,0.2345 0.13125,0.31325 l -0.28175,0.56875 c -0.02275,-0.007 -0.0455,-0.007 -0.06825,-0.007 -0.2414999,0 -0.4374999,0.196 -0.4374999,0.437499 0,0.2415 0.196,0.437501 0.4374999,0.437501 0.2415,0 0.4375,-0.196001 0.4375,-0.437501 0,-0.122499 -0.05075,-0.234499 -0.133,-0.313249 l 0.2835,-0.56875 c 0.0245,0.007 0.0455,0.007 0.06825,0.007 0.02275,0 0.04375,0 0.06825,-0.007 l 0.2852499,0.56875 c -0.08225,0.07875 -0.1347499,0.19075 -0.1347499,0.313249 0,0.2415 0.196,0.4375 0.4374999,0.4375 0.2415,0 0.4375,-0.196 0.4375,-0.4375 0,-0.241499 -0.196,-0.437499 -0.4375,-0.437499 -0.02275,0 -0.0455,0 -0.06825,0.007 l -0.28175,-0.568751 c 0.0805,-0.07875 0.13125,-0.189 0.13125,-0.313249 0,-0.12425 -0.05075,-0.234501 -0.13125,-0.31325 l 0.28175,-0.5687503 c 0.02275,0.007 0.0455,0.007 0.06825,0.007 0.02275,0 0.0455,0 0.06825,-0.007 l 0.28175,0.5687503 c -0.07875,0.07875 -0.13125,0.19075 -0.13125,0.31325 0,0.2415 0.196,0.437499 0.4375,0.437499 0.02275,0 0.04375,0 0.06825,-0.007 l 0.2852499,0.56875 c -0.08225,0.07875 -0.1347499,0.19075 -0.1347499,0.313249 0,0.2415 0.1959999,0.4375 0.4374999,0.4375 0.2415,0 0.4375,-0.196 0.4375,-0.4375 0,-0.241499 -0.196,-0.437499 -0.4375,-0.437499 z"
     id="path1-6"
     style="fill:#333333;fill-opacity:1;stroke-width:0.175" /><path
     d="m 13.058025,4.8055686 c -0.0455,-0.1400001 -0.17675,-0.2432501 -0.3325,-0.2432501 h -0.175 v -0.525 a 0.175,0.175 0 0 0 -0.175,-0.175 h -1.05 v -0.35 h 0.35 a 0.175,0.175 0 0 0 0.175,-0.175 v -0.35 h 0.35 a 0.35000001,0.35000001 0 0 0 0.35,-0.35 v -0.07175 c 0.51275,0.2065 0.875,0.70875 0.875,1.29675 0,0.364 -0.14,0.69475 -0.3675,0.9432501 m -1.2075,0.4444999 c -0.691251,-0.08575 -1.225,-0.67375 -1.225,-1.38775 0,-0.1085 0.014,-0.2135 0.03675,-0.31325 l 0.83825,0.83825 v 0.175 a 0.35000001,0.35000001 0 0 0 0.350001,0.35 m 0.175001,-2.8 a 1.75,1.75 0 0 0 -1.75,1.75 1.75,1.75 0 0 0 1.75,1.75 1.75,1.75 0 0 0 1.75,-1.75 1.75,1.75 0 0 0 -1.75,-1.75 z"
     id="path1-1"
     style="fill:#333333;fill-opacity:1;stroke-width:0.175" /></svg>
