<?xml version="1.0" encoding="UTF-8" standalone="no"?>
<svg
   width="18.103926mm"
   height="12.749034mm"
   viewBox="0 0 18.103926 12.749034"
   version="1.1"
   id="svg7"
   sodipodi:docname="scale-datetime.svg"
   inkscape:version="1.4.2 (1:1.4.2+202505120737+ebf0e940d0)"
   xmlns:inkscape="http://www.inkscape.org/namespaces/inkscape"
   xmlns:sodipodi="http://sodipodi.sourceforge.net/DTD/sodipodi-0.dtd"
   xmlns="http://www.w3.org/2000/svg"
   xmlns:svg="http://www.w3.org/2000/svg">
  <defs
     id="defs7" />
  <sodipodi:namedview
     id="namedview7"
     pagecolor="#ffffff"
     bordercolor="#000000"
     borderopacity="0.25"
     inkscape:showpageshadow="2"
     inkscape:pageopacity="0.0"
     inkscape:pagecheckerboard="0"
     inkscape:deskcolor="#d1d1d1"
     inkscape:document-units="mm"
     inkscape:zoom="5.727315"
     inkscape:cx="-1.1349123"
     inkscape:cy="26.801389"
     inkscape:window-width="1920"
     inkscape:window-height="1052"
     inkscape:window-x="0"
     inkscape:window-y="0"
     inkscape:window-maximized="1"
     inkscape:current-layer="svg7" />
  <!-- Coordinate grid -->
  <!-- Top time series (primary) -->
  <!-- Middle time series (primary) -->
  <!-- Bottom time series (secondary) -->
  <path
     id="path10"
     style="stroke:#8a8a8a;stroke-width:0.15;stroke-dasharray:0.300001;stroke-dashoffset:0;stroke-opacity:1"
     d="M 18.086218,12.674034 2.7368907e-7,12.673968 M 18.086218,8.474356 2.7368907e-7,8.474312 M 18.086218,4.274678 2.7368907e-7,4.274656 M 18.086218,0.075 H 2.7368907e-7 M 18.028867,0.075001 l 5.9e-5,12.599 m -3.590832,-12.599 v 12.598858 m -3.590849,-12.598858 7.6e-5,12.598858 M 7.2565473,0.075001 V 12.673859 M 3.6657743,0.075001 V 12.673859 M 0.07500027,0.075001 v 12.598858" />
  <path
     d="m 0.11060119,10.409673 c 0,0 0.19236103,0.861099 0.28854155,0.933624 0.0961805,0.07252 0.28854154,-0.498475 0.28854154,-0.498475 0,0 0.19236103,0.596088 0.28854155,0.536107 0.0961806,-0.05998 0.28854157,-0.895992 0.28854157,-0.895992 L 1.5533089,10.93674 1.8418505,9.9564435 2.130392,10.423427 2.4189336,9.4583101 2.7074751,10.855276 2.9960166,10.820146 3.2845582,11.712732 3.5730997,11.173218 3.8616413,11.798106 4.1501828,10.990894 4.4387244,11.57414 4.7272659,10.725287 5.0158075,11.106273 5.304349,10.055159 5.5928906,10.61461 5.8814321,9.7419618 6.1699736,9.8898728 6.4585152,8.6056854 6.7470567,9.6277588 7.0355983,9.2177331 7.3241398,10.184923 7.6126814,9.7200138 7.9012229,10.801999 8.1897645,10.451884 8.478306,11.228877 8.7668475,10.57377 l 0.2885416,0.73664 0.2885415,-0.69546 0.2885416,0.940558 0.2885415,-0.491542 0.2885413,0.643116 0.288542,-0.788984 0.288541,0.243101 0.288542,-1.1889995 0.288541,0.9269975 0.288542,-0.505102 0.288542,1.104765 0.288541,-0.327335 0.288542,0.60469 0.288541,-0.82741 0.288542,0.521406 0.288541,-0.910693 0.288542,0.771257 0.288541,-0.660843 0.288542,0.546286 0.288541,-1.018856 0.288542,0.07679 0.288542,-1.1799349 0.288541,0.4797647 0.288542,-0.9523354 0.288541,0.9748984 0.288542,-0.4572007 0.288541,1.0224899 0.288542,-0.4096102 0.288541,1.1087472 0.288542,-0.323352 0.288541,0.787511 0.288542,-0.644589"
     style="fill:none;stroke:#333333;stroke-width:0.15;stroke-linecap:round;stroke-dasharray:none"
     id="path13"
     sodipodi:nodetypes="cscsccccccccccccccccccccccccccccccccccccccccccccccccccccccccccc" />
</svg>
