<?xml version="1.0" encoding="UTF-8" standalone="no"?>
<svg
   width="18.103926mm"
   height="12.749034mm"
   viewBox="0 0 18.103926 12.749034"
   version="1.1"
   id="svg7"
   sodipodi:docname="scale-mixtime.svg"
   inkscape:version="1.4.2 (1:1.4.2+202505120737+ebf0e940d0)"
   xmlns:inkscape="http://www.inkscape.org/namespaces/inkscape"
   xmlns:sodipodi="http://sodipodi.sourceforge.net/DTD/sodipodi-0.dtd"
   xmlns="http://www.w3.org/2000/svg"
   xmlns:svg="http://www.w3.org/2000/svg">
  <defs
     id="defs7">
    <marker
       style="overflow:visible"
       id="Dot"
       refX="0"
       refY="0"
       orient="auto"
       inkscape:stockid="Dot"
       markerWidth="0.5"
       markerHeight="0.5"
       viewBox="0 0 1 1"
       inkscape:isstock="true"
       inkscape:collect="always"
       preserveAspectRatio="xMidYMid">
      <path
         transform="scale(0.5)"
         style="fill:context-stroke;fill-rule:evenodd;stroke:none"
         d="M 5,0 C 5,2.76 2.76,5 0,5 -2.76,5 -5,2.76 -5,0 c 0,-2.76 2.3,-5 5,-5 2.76,0 5,2.24 5,5 z"
         sodipodi:nodetypes="sssss"
         id="path17" />
    </marker>
  </defs>
  <sodipodi:namedview
     id="namedview7"
     pagecolor="#ffffff"
     bordercolor="#000000"
     borderopacity="0.25"
     inkscape:showpageshadow="2"
     inkscape:pageopacity="0.0"
     inkscape:pagecheckerboard="0"
     inkscape:deskcolor="#d1d1d1"
     inkscape:document-units="mm"
     inkscape:zoom="20.09275"
     inkscape:cx="11.173185"
     inkscape:cy="8.8838015"
     inkscape:window-width="1870"
     inkscape:window-height="1052"
     inkscape:window-x="0"
     inkscape:window-y="0"
     inkscape:window-maximized="1"
     inkscape:current-layer="svg7" />
  <!-- Coordinate grid -->
  <!-- Top time series (primary) -->
  <!-- Middle time series (primary) -->
  <!-- Bottom time series (secondary) -->
  <path
     id="path10"
     style="stroke:#8a8a8a;stroke-width:0.15;stroke-dasharray:0.300001;stroke-dashoffset:0;stroke-opacity:1"
     d="M 18.086218,12.674034 2.7368907e-7,12.673968 M 18.086218,8.474356 2.7368907e-7,8.474312 M 18.086218,4.274678 2.7368907e-7,4.274656 M 18.086218,0.075 H 2.7368907e-7 M 14.719712,0.075001 v 12.599 m -3.366505,-12.599 V 12.673859 M 7.986701,0.075001 V 12.673859 M 4.6201953,0.075001 V 12.673859 M 0.07500027,0.075001 v 12.598858"
     sodipodi:nodetypes="cccccccccccccccccc" />
  <path
     d="m 4.8505525,2.6980231 1.8782386,0.8751516 3.102113,-1.8495713 3.1021129,1.8893385 3.102114,-2.1745446 1.978206,1.6516371"
     style="fill:none;stroke:#333333;stroke-width:0.25805;stroke-linecap:round;stroke-dasharray:none;marker-mid:url(#Dot)"
     id="path1"
     sodipodi:nodetypes="cccccc" />
  <path
     d="m 4.8505525,6.917519 0.4246059,0.4375759 0.424606,-0.361892 0.4246059,-0.5314408 0.4246061,-0.5009115 0.4246058,1.3694274 0.424606,0.3550403 0.424606,-0.1833404 0.4246059,-0.2670885 0.424606,-0.673865 0.424606,-0.3149445 0.4246059,-1.142614 0.424606,0.6154619 0.424606,0.5050819 0.424606,0.7359523 0.424606,0.1225659 0.424605,0.041407 0.424606,0.4515196 0.424606,-0.1466812 0.424606,-0.9511731 0.424606,0.4242471 0.424607,0.781766 0.424606,-0.2239619 0.424606,-0.3914583 0.424606,0.1110304 0.424605,-0.4752063 0.424607,-1.1092992 0.424606,-0.4752063 0.424606,0.5205855 0.424606,0.6162974 0.424605,0.7897759 0.424606,0.1437189"
     style="fill:none;stroke:#333333;stroke-width:0.172033;stroke-linecap:round;stroke-dasharray:none"
     id="path12"
     sodipodi:nodetypes="cccccccccccccccccccccccccccccccc" />
  <path
     d="m 4.8505525,10.431192 c 0,0 0.1415353,0.865901 0.2123029,0.938831 0.070767,0.07292 0.212303,-0.501255 0.212303,-0.501255 0,0 0.1415354,0.599412 0.212303,0.539096 0.070767,-0.06031 0.212303,-0.900989 0.212303,-0.900989 l 0.2123029,0.454323 0.212303,-0.9857635 0.212303,0.4695875 0.2123031,-0.9704991 0.2123029,1.4047571 0.2123029,-0.03533 0.212303,0.897564 0.212303,-0.542523 0.2123031,0.628373 0.2123029,-0.811714 0.212303,0.5865 0.2123029,-0.853588 0.212303,0.383111 0.212303,-1.056975 0.212303,0.562572 0.212303,-0.8775154 0.2123029,0.1487359 0.212303,-1.2913494 0.212303,1.0277736 0.212303,-0.4123125 0.212303,0.9725838 0.212303,-0.4675018 0.212303,1.0880198 0.212303,-0.352068 0.212303,0.781327 0.212303,-0.658762 0.212303,0.740749 0.212302,-0.699338 0.212304,0.945803 0.212302,-0.494283 0.212304,0.646703 0.212302,-0.793385 0.212303,0.244457 0.212303,-1.1956306 0.212303,0.9321676 0.212303,-0.50792 0.212304,1.110927 0.212303,-0.32916 0.212303,0.608062 0.212303,-0.832024 0.212303,0.524314 0.212303,-0.915773 0.212303,0.775559 0.212303,-0.664528 0.212302,0.549331 0.212303,-1.024538 0.212303,0.07722 0.212304,-1.1865157 0.212302,0.4824405 0.212304,-0.9576468 0.212302,0.9803356 0.212304,-0.4597505 0.212302,1.0281929 0.212304,-0.4118952 0.212302,1.1149312 0.212303,-0.325156 0.212302,0.791903 0.212304,-0.648184"
     style="fill:none;stroke:#333333;stroke-width:0.129024;stroke-linecap:round;stroke-dasharray:none"
     id="path13"
     sodipodi:nodetypes="cscsccccccccccccccccccccccccccccccccccccccccccccccccccccccccccc" />
  <text
     xml:space="preserve"
     style="font-size:3.10444px;line-height:1.1;font-family:'Ubuntu Sans';-inkscape-font-specification:'Ubuntu Sans';text-align:start;writing-mode:lr-tb;direction:ltr;text-anchor:start;fill:none;stroke:#000000;stroke-width:0.2;stroke-linejoin:round"
     x="-0.070620291"
     y="3.1836956"
     id="text1"><tspan
       sodipodi:role="line"
       id="tspan1"
       style="fill:#000000;fill-opacity:1;stroke:none;stroke-width:0.2"
       x="-0.070620291"
       y="3.1836956">1W</tspan></text>
  <text
     xml:space="preserve"
     style="font-size:3.10444px;line-height:1.1;font-family:'Ubuntu Sans';-inkscape-font-specification:'Ubuntu Sans';text-align:start;writing-mode:lr-tb;direction:ltr;text-anchor:start;fill:#000000;fill-opacity:1;stroke:none;stroke-width:0.2;stroke-linejoin:round"
     x="0.29029858"
     y="7.4627686"
     id="text2"><tspan
       sodipodi:role="line"
       id="tspan2"
       style="stroke-width:0.2"
       x="0.29029858"
       y="7.4627686">1D</tspan></text>
  <text
     xml:space="preserve"
     style="font-size:3.10444px;line-height:1.1;font-family:'Ubuntu Sans';-inkscape-font-specification:'Ubuntu Sans';text-align:start;writing-mode:lr-tb;direction:ltr;text-anchor:start;fill:#000000;fill-opacity:1;stroke:none;stroke-width:0.2;stroke-linejoin:round"
     x="0.86853409"
     y="10.992385"
     id="text3"><tspan
       sodipodi:role="line"
       id="tspan3"
       style="stroke-width:0.2"></tspan></text>
  <text
     xml:space="preserve"
     style="font-size:3.10444px;line-height:1.1;font-family:'Ubuntu Sans';-inkscape-font-specification:'Ubuntu Sans';text-align:start;writing-mode:lr-tb;direction:ltr;text-anchor:start;fill:#000000;fill-opacity:1;stroke:none;stroke-width:0.2;stroke-linejoin:round"
     x="0.44503379"
     y="11.760468"
     id="text4"><tspan
       sodipodi:role="line"
       id="tspan4"
       style="stroke-width:0.2"
       x="0.44503379"
       y="11.760468">1S</tspan></text>
</svg>
