<?xml version="1.0" encoding="UTF-8" standalone="no"?>
<svg
   width="18.103926mm"
   height="12.749034mm"
   viewBox="0 0 18.103926 12.749034"
   version="1.1"
   id="svg7"
   sodipodi:docname="time-types.svg"
   inkscape:version="1.4.2 (1:1.4.2+202505120737+ebf0e940d0)"
   xmlns:inkscape="http://www.inkscape.org/namespaces/inkscape"
   xmlns:sodipodi="http://sodipodi.sourceforge.net/DTD/sodipodi-0.dtd"
   xmlns="http://www.w3.org/2000/svg"
   xmlns:svg="http://www.w3.org/2000/svg">
  <defs
     id="defs7">
    <marker
       style="overflow:visible"
       id="Dot"
       refX="0"
       refY="0"
       orient="auto"
       inkscape:stockid="Dot"
       markerWidth="0.5"
       markerHeight="0.5"
       viewBox="0 0 1 1"
       inkscape:isstock="true"
       inkscape:collect="always"
       preserveAspectRatio="xMidYMid">
      <path
         transform="scale(0.5)"
         style="fill:context-stroke;fill-rule:evenodd;stroke:none"
         d="M 5,0 C 5,2.76 2.76,5 0,5 -2.76,5 -5,2.76 -5,0 c 0,-2.76 2.3,-5 5,-5 2.76,0 5,2.24 5,5 z"
         sodipodi:nodetypes="sssss"
         id="path17" />
    </marker>
  </defs>
  <sodipodi:namedview
     id="namedview7"
     pagecolor="#ffffff"
     bordercolor="#000000"
     borderopacity="0.25"
     inkscape:showpageshadow="2"
     inkscape:pageopacity="0.0"
     inkscape:pagecheckerboard="0"
     inkscape:deskcolor="#d1d1d1"
     inkscape:document-units="mm"
     inkscape:zoom="10.631582"
     inkscape:cx="38.188108"
     inkscape:cy="25.443062"
     inkscape:window-width="1920"
     inkscape:window-height="1052"
     inkscape:window-x="0"
     inkscape:window-y="0"
     inkscape:window-maximized="1"
     inkscape:current-layer="svg7" />
  <!-- Coordinate grid -->
  <!-- Top time series (primary) -->
  <!-- Middle time series (primary) -->
  <!-- Bottom time series (secondary) -->
  <rect
     style="fill:#ffffff;stroke-width:0.38943;stroke-linejoin:round"
     id="rect1"
     width="18.101999"
     height="12.749"
     x="0.00096321106"
     y="1.7166138e-05" />
  <path
     id="path10"
     style="stroke:#8a8a8a;stroke-width:0.15;stroke-dasharray:0.300001;stroke-dashoffset:0;stroke-opacity:1"
     d="M 18.086,12.674 2.7368907e-7,12.673968 M 18.086218,0.075 H 2.7368907e-7 M 0.07500027,0.075001 V 12.673859 M 18.027121,0.075 v 12.599"
     sodipodi:nodetypes="cccccccc" />
  <path
     d="M 0.24448499,6.4589751 2.7656537,7.3127595 6.9296351,5.5083463 11.093616,7.3515558 15.2576,5.2301036 17.912955,6.8414153"
     style="fill:none;stroke:#333333;stroke-width:0.295299;stroke-linecap:round;stroke-dasharray:none;marker-mid:url(#Dot)"
     id="path1"
     sodipodi:nodetypes="cccccc" />
  <text
     xml:space="preserve"
     style="font-size:3.10444px;line-height:1.1;font-family:'Ubuntu Sans';-inkscape-font-specification:'Ubuntu Sans';text-align:start;writing-mode:lr-tb;direction:ltr;text-anchor:start;fill:#000000;fill-opacity:1;stroke:none;stroke-width:0.2;stroke-linejoin:round"
     x="0.86853409"
     y="10.992385"
     id="text3"><tspan
       sodipodi:role="line"
       id="tspan3"
       style="stroke-width:0.2" /></text>
  <path
     d="m 0.30071704,9.5783933 c 0,0 1.32565316,0.9030017 2.52696906,0.8535797 1.2013159,-0.04942 2.6554005,-1.8099038 4.173561,-1.8039799 1.5181605,0.00592 2.6334902,1.8846549 4.1735609,1.8427669 1.540071,-0.04189 2.875689,-2.169062 4.173562,-2.1209428 1.297873,0.048119 2.661464,1.6109253 2.661464,1.6109253"
     style="fill:none;stroke:#333333;stroke-width:0.295603;stroke-linecap:round;stroke-dasharray:none;marker-mid:url(#Dot)"
     id="path2"
     sodipodi:nodetypes="czzzzc" />
  <path
     d="M 0.24448499,4.0804513 2.766,4.1377596 V 2.3818212 L 6.93,2.3333464 V 4.177 h 4.164 V 2.055 h 4.164 v 1.611 h 2.654955"
     style="fill:none;stroke:#333333;stroke-width:0.295299;stroke-linecap:round;stroke-dasharray:none;marker-mid:url(#Dot)"
     id="path3"
     sodipodi:nodetypes="cccccccccc" />
</svg>
